<svg version="1.2" xmlns="http://www.w3.org/2000/svg" viewBox="0 0 960 224" width="960" height="224"><style>.a{fill:#f8f8ff}.b{fill:#2aa98c}.c{fill:#5cbfa7}.d{fill:#85d5c1}.e{fill:#abebdc}</style><path fill-rule="evenodd" class="a" d="m0 0h960v540h-960z"/><path class="b" d="m0 216l16-2c16-2 48-6 80-10.3 32-4.4 64-9 96-7.5 32 1.5 64 9.1 96 8.3 32-0.8 64-10.2 96-15.3 32-5.2 64-6.2 96-10.2 32-4 64-11 96-8.8 32 2.1 64 13.5 96 19.3q48 8.7 96 1.2c32-5 64-15.4 96-15.5 32-0.2 64 9.8 80 14.8l16 5v-195h-16c-16 0-48 0-80 0q-48 0-96 0-48 0-96 0-48 0-96 0-48 0-96 0-48 0-96 0-48 0-96 0-48 0-96 0-48 0-96 0c-32 0-64 0-80 0h-16z"/><path class="c" d="m0 122l16 7.5c16 7.5 48 22.5 80 23.2 32 0.6 64-13 96-16.7 32-3.7 64 2.7 96 5.5 32 2.8 64 2.2 96 3.2 32 1 64 3.6 96 8 32 4.3 64 10.3 96 10.3 32 0 64-6 96-14.5 32-8.5 64-19.5 96-21.2 32-1.6 64 6 96 14.4 32 8.3 64 17.3 80 21.8l16 4.5v-168h-16c-16 0-48 0-80 0q-48 0-96 0-48 0-96 0-48 0-96 0-48 0-96 0-48 0-96 0-48 0-96 0-48 0-96 0-48 0-96 0c-32 0-64 0-80 0h-16z"/><path class="d" d="m0 104l16-1c16-1 48-3 80-3.7 32-0.6 64 0 96-1.3 32-1.3 64-4.7 96-1.8 32 2.8 64 11.8 96 17 32 5.1 64 6.5 96 1 32-5.5 64-17.9 96-24.2 32-6.3 64-6.7 96-3.5 32 3.2 64 9.8 96 12 32 2.2 64-0.2 96 1.3 32 1.5 64 6.9 80 9.5l16 2.7v-112h-16c-16 0-48 0-80 0q-48 0-96 0-48 0-96 0-48 0-96 0-48 0-96 0-48 0-96 0-48 0-96 0-48 0-96 0-48 0-96 0c-32 0-64 0-80 0h-16z"/><path class="e" d="m0 32l16 2.3c16 2.4 48 7 80 13.9 32 6.8 64 15.8 96 16.6 32 0.9 64-6.5 96-10.6q48-6.3 96-3c32 2.1 64 7.5 96 9.6 32 2.2 64 1.2 96 2.7 32 1.5 64 5.5 96 0.7 32-4.9 64-18.5 96-18.9 32-0.3 64 12.7 96 14.5 32 1.9 64-7.5 80-12.1l16-4.7v-43h-16c-16 0-48 0-80 0q-48 0-96 0-48 0-96 0-48 0-96 0-48 0-96 0-48 0-96 0-48 0-96 0-48 0-96 0-48 0-96 0c-32 0-64 0-80 0h-16z"/></svg>